<svg width="24" height="24" viewBox="0 0 24 24" fill="none" xmlns="http://www.w3.org/2000/svg">
<path fill-rule="evenodd" clip-rule="evenodd" d="M3.5 11.0001C3.5 9.05915 4.438 7.20015 6.144 5.76615C6.566 5.40915 6.621 4.77815 6.266 4.35615C5.909 3.93415 5.279 3.87915 4.856 4.23415C2.692 6.05615 1.5 8.45915 1.5 11.0001C1.5 13.5411 2.692 15.9441 4.856 17.7661C5.044 17.9231 5.272 18.0001 5.499 18.0001C5.784 18.0001 6.067 17.8791 6.266 17.6441C6.621 17.2221 6.566 16.5911 6.144 16.2341C4.438 14.8001 3.5 12.9411 3.5 11.0001ZM12 8.00015C10.346 8.00015 9 9.34615 9 11.0001C9 12.3141 9.855 13.4221 11.035 13.8261C11.0311 13.8471 11.0255 13.8674 11.02 13.8875L11.02 13.8875L11.02 13.8876L11.02 13.8876C11.0099 13.9241 11 13.9602 11 14.0001V20.0001C11 20.5531 11.447 21.0001 12 21.0001C12.553 21.0001 13 20.5531 13 20.0001V14.0001C13 13.9602 12.9901 13.9241 12.98 13.8876L12.98 13.8876L12.98 13.8875L12.98 13.8875C12.9745 13.8674 12.9689 13.8471 12.965 13.8261C14.145 13.4221 15 12.3141 15 11.0001C15 9.34615 13.654 8.00015 12 8.00015ZM15.2356 6.35655C15.5896 5.93455 16.2206 5.87855 16.6436 6.23555C18.1636 7.51355 18.9996 9.20655 18.9996 11.0005C18.9996 12.7945 18.1636 14.4865 16.6436 15.7645C16.4566 15.9235 16.2276 16.0005 16.0006 16.0005C15.7156 16.0005 15.4326 15.8795 15.2356 15.6435C14.8786 15.2215 14.9336 14.5905 15.3566 14.2355C16.4156 13.3425 16.9996 12.1935 16.9996 11.0005C16.9996 9.80655 16.4156 8.65755 15.3566 7.76455C14.9336 7.40955 14.8786 6.77855 15.2356 6.35655ZM8.7646 6.35665C8.4106 5.93365 7.7806 5.87765 7.3566 6.23565C5.8366 7.51365 4.9996 9.20665 4.9996 11.0006C4.9996 12.7936 5.8366 14.4866 7.3566 15.7646C7.5436 15.9226 7.7726 16.0006 7.9986 16.0006C8.2846 16.0006 8.5676 15.8786 8.7646 15.6436C9.1206 15.2216 9.0666 14.5906 8.6436 14.2356C7.5836 13.3426 6.9996 12.1936 6.9996 11.0006C6.9996 9.80665 7.5836 8.65765 8.6436 7.76465C9.0666 7.40965 9.1206 6.77865 8.7646 6.35665ZM17.7346 4.35655C18.0906 3.93455 18.7196 3.88055 19.1436 4.23455C21.3076 6.05555 22.4996 8.45955 22.4996 11.0005C22.4996 13.5415 21.3076 15.9445 19.1436 17.7655C18.9566 17.9225 18.7276 18.0005 18.5006 18.0005C18.2156 18.0005 17.9326 17.8795 17.7346 17.6435C17.3786 17.2215 17.4336 16.5905 17.8566 16.2345C19.5616 14.7995 20.4996 12.9415 20.4996 11.0005C20.4996 9.05855 19.5616 7.20055 17.8566 5.76555C17.4336 5.40955 17.3786 4.77855 17.7346 4.35655Z" fill="#8F9BB3"/>
</svg>
