<svg width="16" height="16" viewBox="0 0 16 16" fill="none" xmlns="http://www.w3.org/2000/svg">
<path fill-rule="evenodd" clip-rule="evenodd" d="M4.66667 10.6667C4.66667 10.3 4.96667 10 5.33333 10C5.7 10 6 10.3 6 10.6667C6 11.0333 5.7 11.3333 5.33333 11.3333C4.96667 11.3333 4.66667 11.0333 4.66667 10.6667ZM8 10H10.6667C11.0333 10 11.3333 10.3 11.3333 10.6667C11.3333 11.0333 11.0333 11.3333 10.6667 11.3333H8C7.63333 11.3333 7.33333 11.0333 7.33333 10.6667C7.33333 10.3 7.63333 10 8 10ZM12 12.6667H4C3.63267 12.6667 3.33333 12.368 3.33333 12V8.66667H12.6667V12C12.6667 12.368 12.3673 12.6667 12 12.6667V12.6667ZM5.56133 3.702C5.67467 3.47467 5.90333 3.33333 6.15733 3.33333H9.84267C10.0967 3.33333 10.3253 3.47467 10.4387 3.702L12.2547 7.33333H3.74533L5.56133 3.702ZM13.8593 7.56133L11.6313 3.10533C11.2907 2.424 10.6053 2 9.84267 2H6.15733C5.39467 2 4.70933 2.424 4.36867 3.10533L2.14067 7.56133C2.04867 7.74533 2 7.952 2 8.15733V12C2 13.1027 2.89733 14 4 14H12C13.1027 14 14 13.1027 14 12V8.15733C14 7.952 13.9513 7.74533 13.8593 7.56133V7.56133Z" fill="#8F9BB3"/>
</svg>
