<svg width="16" height="17" viewBox="0 0 16 17" fill="none" xmlns="http://www.w3.org/2000/svg">
<path fill-rule="evenodd" clip-rule="evenodd" d="M4.40007 3.16732C3.44407 3.16732 2.66674 3.94465 2.66674 4.90065C2.66674 9.82598 6.67407 13.834 11.6001 13.834C12.5554 13.834 13.3334 13.0567 13.3334 12.1006C13.3334 12.0267 13.3287 11.954 13.3194 11.882L10.2394 11.1753C10.1781 11.2927 10.1107 11.42 10.0494 11.5387C9.74541 12.1187 9.5254 12.54 8.96407 12.314C6.76007 11.5407 4.96074 9.74065 4.1774 7.50998C3.9394 6.98665 4.39274 6.74932 4.9674 6.44932C5.08407 6.38798 5.21007 6.32198 5.3254 6.26198L4.61874 3.18132C4.54474 3.17198 4.47274 3.16732 4.40007 3.16732ZM11.6001 15.1673C5.93874 15.1673 1.3334 10.562 1.3334 4.90065C1.3334 3.20932 2.70874 1.83398 4.40007 1.83398C4.5734 1.83398 4.74474 1.84865 4.91074 1.87732C5.07274 1.90332 5.2354 1.94465 5.39407 1.99932C5.61074 2.07465 5.77407 2.25665 5.8254 2.48065L6.73807 6.45665C6.78874 6.67532 6.7254 6.90465 6.5694 7.06732C6.47874 7.16198 6.47674 7.16398 5.65007 7.59665C6.3194 9.04598 7.48274 10.2053 8.90274 10.852C9.33607 10.0247 9.33874 10.022 9.4334 9.93132C9.59607 9.77532 9.82674 9.71465 10.0441 9.76265L14.0207 10.6753C14.2441 10.7267 14.4261 10.8893 14.5007 11.106C14.5554 11.2633 14.5967 11.426 14.6241 11.5933C14.6521 11.758 14.6667 11.9287 14.6667 12.1007C14.6667 13.792 13.2907 15.1673 11.6001 15.1673Z" fill="#8F9BB3"/>
</svg>
